<svg width="68" height="68" viewBox="0 0 68 68" fill="none" xmlns="http://www.w3.org/2000/svg">
<g opacity="0.4" filter="url(#filter0_d)">
<path fill-rule="evenodd" clip-rule="evenodd" d="M34 60C50.5685 60 64 46.5685 64 30C64 13.4315 50.5685 0 34 0C17.4315 0 4 13.4315 4 30C4 46.5685 17.4315 60 34 60ZM29.3052 30L36.7203 37.3779C37.0932 37.749 37.0932 38.3506 36.7203 38.7217C36.3474 39.0928 35.7429 39.0928 35.37 38.7217L27.2797 30.6719C26.9068 30.3008 26.9068 29.6992 27.2797 29.3281L35.37 21.2783C35.7429 20.9072 36.3474 20.9072 36.7203 21.2783C37.0932 21.6494 37.0932 22.251 36.7203 22.6221L29.3052 30Z" fill="white"/>
</g>
<defs>
<filter id="filter0_d" x="0" y="0" width="68" height="68" filterUnits="userSpaceOnUse" color-interpolation-filters="sRGB">
<feFlood flood-opacity="0" result="BackgroundImageFix"/>
<feColorMatrix in="SourceAlpha" type="matrix" values="0 0 0 0 0 0 0 0 0 0 0 0 0 0 0 0 0 0 127 0"/>
<feOffset dy="4"/>
<feGaussianBlur stdDeviation="2"/>
<feColorMatrix type="matrix" values="0 0 0 0 0 0 0 0 0 0 0 0 0 0 0 0 0 0 0.25 0"/>
<feBlend mode="normal" in2="BackgroundImageFix" result="effect1_dropShadow"/>
<feBlend mode="normal" in="SourceGraphic" in2="effect1_dropShadow" result="shape"/>
</filter>
</defs>
</svg>
